<?xml version="1.0" encoding="utf-8"?>
<!-- Svg Vector Icons : http://www.onlinewebfonts.com/icon -->
<!DOCTYPE svg PUBLIC "-//W3C//DTD SVG 1.1//EN" "http://www.w3.org/Graphics/SVG/1.1/DTD/svg11.dtd">
<svg version="1.1" xmlns="http://www.w3.org/2000/svg" xmlns:xlink="http://www.w3.org/1999/xlink"
    x="0px" y="0px" viewBox="0 0 1000 1000" style="fill: #FFDB6E;"
    enable-background="new 0 0 1000 1000" xml:space="preserve">
<metadata> Svg Vector Icons : http://www.onlinewebfonts.com/icon </metadata>
<g><path d="M916.9,771.7H554.7l162,161.6c9.9,9.8,9.9,25.7,0,35.6c-9.8,9.8-25.8,9.8-35.6,0L525.2,813.4V965c0,13.9-11.3,25.1-25.2,25.1c-13.9,0-25.2-11.3-25.2-25.1V813.4L319,968.8c-9.8,9.8-25.8,9.8-35.7,0c-9.8-9.8-9.8-25.7,0-35.6l162-161.6H83.1c-40.4,0-73.1-36.3-73.1-81V9.9h980v680.8C990,735.5,957.2,771.7,916.9,771.7z M917.9,168.1H82.1v451.2c0,38.2,27.9,69.1,62.4,69.1h711.1c34.4,0,62.4-31,62.4-69.1V168.1z M555.8,416.1h288.5v31.3H555.8V416.1z M555.4,333.9h288.5v31.3H555.4V333.9z M426.6,554.7c-69.6,56.1-171.7,46.6-229.5-22.1c-58.4-69.4-49.3-172.9,20.3-231.2c69.6-58.2,173.4-49.2,231.8,20.2c20.4,24.3,32.6,52.8,36.8,82l-167,23.1L426.6,554.7z M739.5,529.5H555.8v-31.2h183.7V529.5z"/></g>
</svg>